# xmcd
#
# Track frame offsets:
#	150
#	9212
#	48046
#
# Disc length: 1102 seconds
#
# Revision: 1
# Processed by: cddbd v1.5.2PL0 Copyright (c) Steve Scherf et al.
# Submitted via: audiograbber 1.83.01
#
DISCID=11044c03
DTITLE=Grateful Dead - 78-05-09A Onondaga County War Memorial, Syracuse NY
DYEAR=1900
DGENRE=
TTITLE0="Take A Step Back"
TTITLE1=Samson and Delilah
TTITLE2=Ship Of Fools
EXTD=
EXTT0=
EXTT1=
EXTT2=
PLAYORDER=
